<svg viewBox="0 0 900 520" width="100%" role="img" aria-label="Route trace"><style>svg{background:#f3efe6}:root{--paper:#f3efe6;--ink:#211d17;--dim:#6f6a5c;--rule:#d7d0be;--accent:#7c3b2c;--gold:#9a7636;--faint:#c9c1ac;--c0:#2f5d54;--c1:#9a7636;--c2:#7c3b2c;--c3:#5b4a6f;--c4:#3a6079;--c5:#7a7d3c;--c6:#8a8172}text{font-family:"Spline Sans Mono",ui-monospace,monospace}.ax{fill:#6f6a5c;font-size:9px} .ax-note{fill:#211d17;font-size:9px}.tr-city{fill:#6f6a5c;font-size:9px} .tr-note{fill:#211d17;font-size:9.5px}</style><rect x="0.5" y="0.5" width="899" height="519" fill="none" stroke="var(--rule)" stroke-width="1"/><path d="M335.7 301.2 Q315.2 267.9 281.9 247.5" fill="none" stroke="var(--gold)" stroke-width="1.4" stroke-dasharray="" opacity="0.85"/><path d="M281.9 247.5 Q270.3 242.1 257.5 242.5" fill="none" stroke="var(--gold)" stroke-width="1.4" stroke-dasharray="" opacity="0.85"/><path d="M257.5 242.5 Q242.7 221.3 219.9 209.0" fill="none" stroke="var(--gold)" stroke-width="1.4" stroke-dasharray="" opacity="0.85"/><path d="M219.9 209.0 Q228.2 210.2 236.1 207.5" fill="none" stroke="var(--gold)" stroke-width="1.4" stroke-dasharray="" opacity="0.85"/><path d="M236.1 207.5 Q239.0 209.7 242.7 210.4" fill="none" stroke="var(--gold)" stroke-width="1.4" stroke-dasharray="" opacity="0.85"/><path d="M242.7 210.4 Q239.7 208.2 236.1 207.5" fill="none" stroke="var(--gold)" stroke-width="1.4" stroke-dasharray="" opacity="0.85"/><path d="M236.1 207.5 Q218.3 207.4 202.4 215.4" fill="none" stroke="var(--gold)" stroke-width="1.4" stroke-dasharray="" opacity="0.85"/><path d="M202.4 215.4 Q207.8 230.3 219.3 241.1" fill="none" stroke="var(--gold)" stroke-width="1.4" stroke-dasharray="" opacity="0.85"/><path d="M219.3 241.1 Q205.4 221.8 184.3 211.0" fill="none" stroke="var(--gold)" stroke-width="1.4" stroke-dasharray="" opacity="0.85"/><path d="M184.3 211.0 Q166.8 206.3 149.1 210.2" fill="none" stroke="var(--gold)" stroke-width="1.4" stroke-dasharray="1.5 5" opacity="0.85"/><path d="M149.1 210.2 Q118.6 203.7 88.5 211.8" fill="none" stroke="var(--gold)" stroke-width="1.4" stroke-dasharray="" opacity="0.85"/><path d="M88.5 211.8 Q78.6 207.1 67.7 207.4" fill="none" stroke="var(--gold)" stroke-width="1.4" stroke-dasharray="7 5" opacity="0.85"/><path d="M67.7 207.4 Q77.6 212.1 88.5 211.8" fill="none" stroke="var(--gold)" stroke-width="1.4" stroke-dasharray="7 5" opacity="0.85"/><path d="M88.5 211.8 Q119.0 218.2 149.1 210.2" fill="none" stroke="var(--gold)" stroke-width="1.4" stroke-dasharray="7 5" opacity="0.85"/><path d="M149.1 210.2 Q151.3 210.3 153.3 209.4" fill="none" stroke="var(--gold)" stroke-width="1.4" stroke-dasharray="" opacity="0.85"/><path d="M153.3 209.4 Q151.1 209.3 149.1 210.2" fill="none" stroke="var(--gold)" stroke-width="1.4" stroke-dasharray="" opacity="0.85"/><path d="M149.1 210.2 Q155.7 198.4 156.2 184.9" fill="none" stroke="var(--gold)" stroke-width="1.4" stroke-dasharray="" opacity="0.85"/><path d="M156.2 184.9 Q232.0 264.6 335.7 301.2" fill="none" stroke="var(--gold)" stroke-width="1.4" stroke-dasharray="2 7" opacity="0.5"/><path d="M335.7 301.2 Q347.6 285.1 350.9 265.3" fill="none" stroke="var(--gold)" stroke-width="1.4" stroke-dasharray="" opacity="0.85"/><path d="M350.9 265.3 Q354.5 266.4 358.1 265.7" fill="none" stroke="var(--gold)" stroke-width="1.4" stroke-dasharray="" opacity="0.85"/><path d="M358.1 265.7 Q369.1 265.8 379.0 260.8" fill="none" stroke="var(--gold)" stroke-width="1.4" stroke-dasharray="" opacity="0.85"/><path d="M379.0 260.8 Q407.4 266.7 435.5 259.0" fill="none" stroke="var(--gold)" stroke-width="1.4" stroke-dasharray="" opacity="0.85"/><path d="M435.5 259.0 Q474.7 240.4 501.2 206.1" fill="none" stroke="var(--gold)" stroke-width="1.4" stroke-dasharray="" opacity="0.85"/><path d="M501.2 206.1 Q534.2 191.2 557.0 163.0" fill="none" stroke="var(--gold)" stroke-width="1.4" stroke-dasharray="" opacity="0.85"/><path d="M557.0 163.0 Q625.4 140.3 676.1 89.0" fill="none" stroke="var(--gold)" stroke-width="1.4" stroke-dasharray="" opacity="0.85"/><path d="M676.1 89.0 Q724.3 88.6 767.1 66.3" fill="none" stroke="var(--gold)" stroke-width="1.4" stroke-dasharray="1.5 5" opacity="0.85"/><path d="M767.1 66.3 Q795.3 76.1 824.9 72.0" fill="none" stroke="var(--gold)" stroke-width="1.4" stroke-dasharray="" opacity="0.85"/><path d="M824.9 72.0 Q821.2 78.9 820.9 86.8" fill="none" stroke="var(--gold)" stroke-width="1.4" stroke-dasharray="1.5 5" opacity="0.85"/><path d="M820.9 86.8 Q807.9 110.3 806.9 137.2" fill="none" stroke="var(--gold)" stroke-width="1.4" stroke-dasharray="" opacity="0.85"/><path d="M806.9 137.2 Q814.1 163.2 832.3 183.1" fill="none" stroke="var(--gold)" stroke-width="1.4" stroke-dasharray="" opacity="0.85"/><path d="M832.3 183.1 Q808.9 181.4 787.3 190.6" fill="none" stroke="var(--gold)" stroke-width="1.4" stroke-dasharray="" opacity="0.85"/><path d="M787.3 190.6 Q758.5 206.1 739.9 232.8" fill="none" stroke="var(--gold)" stroke-width="1.4" stroke-dasharray="" opacity="0.85"/><path d="M739.9 232.8 Q723.0 252.0 716.8 276.7" fill="none" stroke="var(--gold)" stroke-width="1.4" stroke-dasharray="" opacity="0.85"/><path d="M716.8 276.7 Q698.3 274.7 681.0 281.2" fill="none" stroke="var(--gold)" stroke-width="1.4" stroke-dasharray="" opacity="0.85"/><path d="M681.0 281.2 Q661.1 283.4 644.5 294.3" fill="none" stroke="var(--gold)" stroke-width="1.4" stroke-dasharray="" opacity="0.85"/><path d="M644.5 294.3 Q639.5 303.7 639.4 314.3" fill="none" stroke="var(--gold)" stroke-width="1.4" stroke-dasharray="" opacity="0.85"/><path d="M639.4 314.3 Q647.2 316.9 655.3 315.6" fill="none" stroke="var(--gold)" stroke-width="1.4" stroke-dasharray="" opacity="0.85"/><path d="M655.3 315.6 Q647.5 313.0 639.4 314.3" fill="none" stroke="var(--gold)" stroke-width="1.4" stroke-dasharray="" opacity="0.85"/><path d="M639.4 314.3 Q610.4 327.1 590.5 351.6" fill="none" stroke="var(--gold)" stroke-width="1.4" stroke-dasharray="" opacity="0.85"/><path d="M590.5 351.6 Q593.9 355.8 598.9 357.9" fill="none" stroke="var(--gold)" stroke-width="1.4" stroke-dasharray="" opacity="0.85"/><path d="M598.9 357.9 Q614.3 364.2 630.9 362.8" fill="none" stroke="var(--gold)" stroke-width="1.4" stroke-dasharray="" opacity="0.85"/><path d="M630.9 362.8 Q630.3 387.4 640.8 409.6" fill="none" stroke="var(--gold)" stroke-width="1.4" stroke-dasharray="" opacity="0.85"/><path d="M640.8 409.6 Q636.4 405.4 630.5 403.6" fill="none" stroke="var(--gold)" stroke-width="1.4" stroke-dasharray="7 5" opacity="0.85"/><path d="M630.5 403.6 Q635.0 407.8 640.8 409.6" fill="none" stroke="var(--gold)" stroke-width="1.4" stroke-dasharray="7 5" opacity="0.85"/><path d="M640.8 409.6 Q655.3 414.8 670.5 412.9" fill="none" stroke="var(--gold)" stroke-width="1.4" stroke-dasharray="7 5" opacity="0.85"/><path d="M670.5 412.9 Q678.3 409.3 683.6 402.5" fill="none" stroke="var(--gold)" stroke-width="1.4" stroke-dasharray="" opacity="0.85"/><path d="M683.6 402.5 Q686.6 410.7 693.0 416.7" fill="none" stroke="var(--gold)" stroke-width="1.4" stroke-dasharray="5 4" opacity="0.85"/><path d="M693.0 416.7 Q693.1 420.9 695.1 424.5" fill="none" stroke="var(--gold)" stroke-width="1.4" stroke-dasharray="5 4" opacity="0.85"/><path d="M695.1 424.5 Q698.0 421.1 699.0 416.7" fill="none" stroke="var(--gold)" stroke-width="1.4" stroke-dasharray="7 5" opacity="0.85"/><path d="M699.0 416.7 Q698.7 424.3 702.0 431.2" fill="none" stroke="var(--gold)" stroke-width="1.4" stroke-dasharray="7 5" opacity="0.85"/><path d="M702.0 431.2 Q699.7 432.7 698.4 435.1" fill="none" stroke="var(--gold)" stroke-width="1.4" stroke-dasharray="" opacity="0.85"/><path d="M698.4 435.1 Q700.7 433.6 702.0 431.2" fill="none" stroke="var(--gold)" stroke-width="1.4" stroke-dasharray="" opacity="0.85"/><path d="M702.0 431.2 Q703.8 435.6 707.4 438.7" fill="none" stroke="var(--gold)" stroke-width="1.4" stroke-dasharray="7 5" opacity="0.85"/><path d="M707.4 438.7 Q711.0 436.1 713.0 432.2" fill="none" stroke="var(--gold)" stroke-width="1.4" stroke-dasharray="7 5" opacity="0.85"/><path d="M713.0 432.2 Q709.4 434.8 707.4 438.7" fill="none" stroke="var(--gold)" stroke-width="1.4" stroke-dasharray="5 4" opacity="0.85"/><path d="M707.4 438.7 Q708.9 447.0 714.0 453.7" fill="none" stroke="var(--gold)" stroke-width="1.4" stroke-dasharray="7 5" opacity="0.85"/><path d="M714.0 453.7 Q532.1 347.8 329.8 289.6" fill="none" stroke="var(--gold)" stroke-width="1.4" stroke-dasharray="2 7" opacity="0.5"/><path d="M329.8 289.6 Q331.3 296.1 335.7 301.2" fill="none" stroke="var(--gold)" stroke-width="1.4" stroke-dasharray="7 5" opacity="0.85"/><path d="M335.7 301.2 Q315.2 267.9 281.9 247.5" fill="none" stroke="var(--gold)" stroke-width="1.4" stroke-dasharray="2 7" opacity="0.5"/><circle cx="335.7" cy="301.2" r="2.6" fill="var(--gold)"><title>Paris · 14 nights</title></circle><circle cx="281.9" cy="247.5" r="2.6" fill="var(--gold)"><title>London · 7 nights</title></circle><circle cx="257.5" cy="242.5" r="1.4" fill="var(--gold)"><title>Oxford · 0 nights</title></circle><circle cx="219.9" cy="209.0" r="2.6" fill="var(--gold)"><title>Liverpool · 3 nights</title></circle><circle cx="236.1" cy="207.5" r="2.6" fill="var(--gold)"><title>Manchester · 2 nights</title></circle><circle cx="242.7" cy="210.4" r="1.4" fill="var(--gold)"><title>Chinley · 0 nights</title></circle><circle cx="236.1" cy="207.5" r="2.6" fill="var(--gold)"><title>Manchester · 2 nights</title></circle><circle cx="202.4" cy="215.4" r="2.6" fill="var(--gold)"><title>Betws-y-Coed · 1 nights</title></circle><circle cx="219.3" cy="241.1" r="2.6" fill="var(--gold)"><title>Abergavenny · 2 nights</title></circle><circle cx="184.3" cy="211.0" r="1.4" fill="var(--gold)"><title>Holyhead · 0 nights</title></circle><circle cx="149.1" cy="210.2" r="1.4" fill="var(--gold)"><title>Dublin · 0 nights</title></circle><circle cx="88.5" cy="211.8" r="1.4" fill="var(--gold)"><title>Galway · 0 nights</title></circle><circle cx="67.7" cy="207.4" r="2.6" fill="var(--gold)"><title>Clifden · 2 nights</title></circle><circle cx="88.5" cy="211.8" r="1.4" fill="var(--gold)"><title>Galway · 0 nights</title></circle><circle cx="149.1" cy="210.2" r="1.4" fill="var(--gold)"><title>Dublin · 0 nights</title></circle><circle cx="153.3" cy="209.4" r="1.4" fill="var(--gold)"><title>Howth · 0 nights</title></circle><circle cx="149.1" cy="210.2" r="2.6" fill="var(--gold)"><title>Dublin · 2 nights</title></circle><circle cx="156.2" cy="184.9" r="2.6" fill="var(--gold)"><title>Belfast · 1 nights</title></circle><circle cx="335.7" cy="301.2" r="2.6" fill="var(--gold)"><title>Paris · 6 nights</title></circle><circle cx="350.9" cy="265.3" r="1.4" fill="var(--gold)"><title>Lille · 0 nights</title></circle><circle cx="358.1" cy="265.7" r="1.4" fill="var(--gold)"><title>Tournai · 0 nights</title></circle><circle cx="379.0" cy="260.8" r="1.4" fill="var(--gold)"><title>Brussels · 0 nights</title></circle><circle cx="435.5" cy="259.0" r="1.4" fill="var(--gold)"><title>Cologne · 0 nights</title></circle><circle cx="501.2" cy="206.1" r="1.4" fill="var(--gold)"><title>Hamburg · 0 nights</title></circle><circle cx="557.0" cy="163.0" r="2.6" fill="var(--gold)"><title>Copenhagen · 3 nights</title></circle><circle cx="676.1" cy="89.0" r="2.6" fill="var(--gold)"><title>Stockholm · 3 nights</title></circle><circle cx="767.1" cy="66.3" r="1.4" fill="var(--gold)"><title>Turku · 0 nights</title></circle><circle cx="824.9" cy="72.0" r="2.6" fill="var(--gold)"><title>Helsinki · 3 nights</title></circle><circle cx="820.9" cy="86.8" r="2.6" fill="var(--gold)"><title>Tallinn · 1 nights</title></circle><circle cx="806.9" cy="137.2" r="2.6" fill="var(--gold)"><title>Riga · 2 nights</title></circle><circle cx="832.3" cy="183.1" r="2.6" fill="var(--gold)"><title>Vilnius · 1 nights</title></circle><circle cx="787.3" cy="190.6" r="1.4" fill="var(--gold)"><title>Mockava · 0 nights</title></circle><circle cx="739.9" cy="232.8" r="1.4" fill="var(--gold)"><title>Warsaw · 0 nights</title></circle><circle cx="716.8" cy="276.7" r="1.4" fill="var(--gold)"><title>Kraków · 0 nights</title></circle><circle cx="681.0" cy="281.2" r="1.4" fill="var(--gold)"><title>Ostrava · 0 nights</title></circle><circle cx="644.5" cy="294.3" r="1.4" fill="var(--gold)"><title>Brno · 0 nights</title></circle><circle cx="639.4" cy="314.3" r="1.4" fill="var(--gold)"><title>Vienna · 0 nights</title></circle><circle cx="655.3" cy="315.6" r="2.6" fill="var(--gold)"><title>Bratislava · 2 nights</title></circle><circle cx="639.4" cy="314.3" r="2.6" fill="var(--gold)"><title>Vienna · 1 nights</title></circle><circle cx="590.5" cy="351.6" r="2.6" fill="var(--gold)"><title>Bled · 1 nights</title></circle><circle cx="598.9" cy="357.9" r="2.6" fill="var(--gold)"><title>Ljubljana · 1 nights</title></circle><circle cx="630.9" cy="362.8" r="1.4" fill="var(--gold)"><title>Zagreb · 0 nights</title></circle><circle cx="640.8" cy="409.6" r="2.6" fill="var(--gold)"><title>Split · 4 nights</title></circle><circle cx="630.5" cy="403.6" r="1.4" fill="var(--gold)"><title>Krka National Park · 0 nights</title></circle><circle cx="640.8" cy="409.6" r="1.4" fill="var(--gold)"><title>Split · 0 nights</title></circle><circle cx="670.5" cy="412.9" r="2.6" fill="var(--gold)"><title>Mostar · 1 nights</title></circle><circle cx="683.6" cy="402.5" r="2.6" fill="var(--gold)"><title>Sarajevo · 1 nights</title></circle><circle cx="693.0" cy="416.7" r="1.4" fill="var(--gold)"><title>Pluzine · 0 nights</title></circle><circle cx="695.1" cy="424.5" r="1.4" fill="var(--gold)"><title>Niksic · 0 nights</title></circle><circle cx="699.0" cy="416.7" r="2.6" fill="var(--gold)"><title>Žabljak · 3 nights</title></circle><circle cx="702.0" cy="431.2" r="2.6" fill="var(--gold)"><title>Podgorica · 2 nights</title></circle><circle cx="698.4" cy="435.1" r="1.4" fill="var(--gold)"><title>Virpazar · 0 nights</title></circle><circle cx="702.0" cy="431.2" r="2.6" fill="var(--gold)"><title>Podgorica · 1 nights</title></circle><circle cx="707.4" cy="438.7" r="2.6" fill="var(--gold)"><title>Shkodër · 2 nights</title></circle><circle cx="713.0" cy="432.2" r="1.4" fill="var(--gold)"><title>Theth · 0 nights</title></circle><circle cx="707.4" cy="438.7" r="1.4" fill="var(--gold)"><title>Shkodër · 0 nights</title></circle><circle cx="714.0" cy="453.7" r="2.6" fill="var(--gold)"><title>Tirana · 1 nights</title></circle><circle cx="329.8" cy="289.6" r="1.4" fill="var(--gold)"><title>Beauvais · 0 nights</title></circle><circle cx="335.7" cy="301.2" r="2.6" fill="var(--gold)"><title>Paris · 16 nights</title></circle><circle cx="281.9" cy="247.5" r="1.4" fill="var(--gold)"><title>London · 0 nights</title></circle><text x="330.7" y="304.2" text-anchor="end" class="tr-city">Paris</text><text x="276.9" y="250.5" text-anchor="end" class="tr-city">London</text><text x="214.9" y="212.0" text-anchor="end" class="tr-city">Liverpool</text><text x="231.1" y="210.5" text-anchor="end" class="tr-city">Manchester</text><text x="197.4" y="218.4" text-anchor="end" class="tr-city">Betws-y-Coed</text><text x="214.3" y="244.1" text-anchor="end" class="tr-city">Abergavenny</text><text x="62.7" y="210.4" text-anchor="end" class="tr-city">Clifden</text><text x="144.1" y="213.2" text-anchor="end" class="tr-city">Dublin</text><text x="151.2" y="187.9" text-anchor="end" class="tr-city">Belfast</text><text x="562.0" y="166.0" text-anchor="start" class="tr-city">Copenhagen</text><text x="681.1" y="92.0" text-anchor="start" class="tr-city">Stockholm</text><text x="829.9" y="75.0" text-anchor="start" class="tr-city">Helsinki</text><text x="825.9" y="89.8" text-anchor="start" class="tr-city">Tallinn</text><text x="811.9" y="140.2" text-anchor="start" class="tr-city">Riga</text><text x="837.3" y="186.1" text-anchor="start" class="tr-city">Vilnius</text><text x="660.3" y="318.6" text-anchor="start" class="tr-city">Bratislava</text><text x="644.4" y="317.3" text-anchor="start" class="tr-city">Vienna</text><text x="595.5" y="354.6" text-anchor="start" class="tr-city">Bled</text><text x="603.9" y="360.9" text-anchor="start" class="tr-city">Ljubljana</text><text x="645.8" y="412.6" text-anchor="start" class="tr-city">Split</text><text x="675.5" y="415.9" text-anchor="start" class="tr-city">Mostar</text><text x="688.6" y="405.5" text-anchor="start" class="tr-city">Sarajevo</text><text x="704.0" y="419.7" text-anchor="start" class="tr-city">Žabljak</text><text x="707.0" y="434.2" text-anchor="start" class="tr-city">Podgorica</text><text x="712.4" y="441.7" text-anchor="start" class="tr-city">Shkodër</text><text x="719.0" y="456.7" text-anchor="start" class="tr-city">Tirana</text><line x1="640.8" y1="409.6" x2="570.8" y2="449.6" stroke="var(--dim)" stroke-width="0.8"/><text x="566.8" y="453.6" text-anchor="end" class="tr-note">Ljubljana&#8202;&#8594;&#8202;Split · 13h37m</text></svg>