<svg viewBox="0 0 900 520" width="100%" role="img" aria-label="Route trace"><style>svg{background:#17150f}:root{--paper:#17150f;--ink:#ece5d5;--dim:#948c7a;--rule:#332f26;--accent:#cf7359;--gold:#c8a55f;--faint:#3d3a2f;--far:#2c281f;--c0:#5fa093;--c1:#c8a55f;--c2:#cf7359;--c3:#a08fba;--c4:#7ba7c4;--c5:#b7bb6e;--c6:#b3aa96}text{font-family:"Spline Sans Mono",ui-monospace,monospace}.ax{fill:#948c7a;font-size:9px} .ax-note{fill:#ece5d5;font-size:9px}.tr-city{fill:#948c7a;font-size:9px} .tr-note{fill:#ece5d5;font-size:9.5px}</style><rect x="0.5" y="0.5" width="899" height="519" fill="none" stroke="var(--rule)" stroke-width="1"/><path d="M335.7 301.2 Q314.2 269.0 281.9 247.5" fill="none" stroke="var(--gold)" stroke-width="1.90" stroke-dasharray="" opacity="0.95"/><path d="M281.9 247.5 Q270.2 242.6 257.5 242.5" fill="none" stroke="var(--gold)" stroke-width="1.90" stroke-dasharray="" opacity="0.95"/><path d="M257.5 242.5 Q242.0 222.0 219.9 209.0" fill="none" stroke="var(--gold)" stroke-width="1.90" stroke-dasharray="" opacity="0.95"/><path d="M219.9 209.0 Q228.2 209.9 236.1 207.5" fill="none" stroke="var(--gold)" stroke-width="1.90" stroke-dasharray="" opacity="0.95"/><path d="M236.1 207.5 Q239.1 209.6 242.7 210.4" fill="none" stroke="var(--gold)" stroke-width="1.90" stroke-dasharray="" opacity="0.95"/><path d="M242.7 210.4 Q239.7 208.3 236.1 207.5" fill="none" stroke="var(--gold)" stroke-width="1.90" stroke-dasharray="" opacity="0.95"/><path d="M236.1 207.5 Q218.5 208.1 202.4 215.4" fill="none" stroke="var(--gold)" stroke-width="1.90" stroke-dasharray="" opacity="0.95"/><path d="M202.4 215.4 Q208.3 229.9 219.3 241.1" fill="none" stroke="var(--gold)" stroke-width="1.90" stroke-dasharray="" opacity="0.95"/><path d="M219.3 241.1 Q204.8 222.5 184.3 211.0" fill="none" stroke="var(--gold)" stroke-width="1.90" stroke-dasharray="" opacity="0.95"/><path d="M184.3 211.0 Q166.9 202.8 149.1 210.2" fill="none" stroke="var(--gold)" stroke-width="1.90" stroke-linecap="round" stroke-dasharray="0.1 6" opacity="0.8"/><path d="M149.1 210.2 Q118.6 204.9 88.5 211.8" fill="none" stroke="var(--gold)" stroke-width="1.90" stroke-dasharray="" opacity="0.95"/><path d="M88.5 211.8 Q78.7 206.6 67.7 207.4" fill="none" stroke="var(--gold)" stroke-width="1.40" stroke-dasharray="9 6" opacity="0.85"/><path d="M67.7 207.4 Q77.5 212.5 88.5 211.8" fill="none" stroke="var(--gold)" stroke-width="1.40" stroke-dasharray="9 6" opacity="0.85"/><path d="M88.5 211.8 Q119.0 219.4 149.1 210.2" fill="none" stroke="var(--gold)" stroke-width="1.40" stroke-dasharray="9 6" opacity="0.85"/><path d="M149.1 210.2 Q151.3 210.2 153.3 209.4" fill="none" stroke="var(--gold)" stroke-width="1.90" stroke-dasharray="" opacity="0.95"/><path d="M153.3 209.4 Q151.1 209.4 149.1 210.2" fill="none" stroke="var(--gold)" stroke-width="1.90" stroke-dasharray="" opacity="0.95"/><path d="M149.1 210.2 Q155.2 198.2 156.2 184.9" fill="none" stroke="var(--gold)" stroke-width="1.90" stroke-dasharray="" opacity="0.95"/><path d="M156.2 184.9 Q213.3 293.4 335.7 301.2" fill="none" stroke="var(--gold)" stroke-width="1.30" stroke-dasharray="2 7" opacity="0.62"/><path d="M335.7 301.2 Q346.9 284.8 350.9 265.3" fill="none" stroke="var(--gold)" stroke-width="1.90" stroke-dasharray="" opacity="0.95"/><path d="M350.9 265.3 Q354.5 266.2 358.1 265.7" fill="none" stroke="var(--gold)" stroke-width="1.90" stroke-dasharray="" opacity="0.95"/><path d="M358.1 265.7 Q369.0 265.3 379.0 260.8" fill="none" stroke="var(--gold)" stroke-width="1.90" stroke-dasharray="" opacity="0.95"/><path d="M379.0 260.8 Q407.4 265.6 435.5 259.0" fill="none" stroke="var(--gold)" stroke-width="1.90" stroke-dasharray="" opacity="0.95"/><path d="M435.5 259.0 Q473.6 239.1 501.2 206.1" fill="none" stroke="var(--gold)" stroke-width="1.90" stroke-dasharray="" opacity="0.95"/><path d="M501.2 206.1 Q533.4 190.1 557.0 163.0" fill="none" stroke="var(--gold)" stroke-width="1.90" stroke-dasharray="" opacity="0.95"/><path d="M557.0 163.0 Q623.9 137.9 676.1 89.0" fill="none" stroke="var(--gold)" stroke-width="1.90" stroke-dasharray="" opacity="0.95"/><path d="M676.1 89.0 Q726.6 97.6 767.1 66.3" fill="none" stroke="var(--gold)" stroke-width="1.90" stroke-linecap="round" stroke-dasharray="0.1 6" opacity="0.8"/><path d="M767.1 66.3 Q795.4 74.9 824.9 72.0" fill="none" stroke="var(--gold)" stroke-width="1.90" stroke-dasharray="" opacity="0.95"/><path d="M824.9 72.0 Q819.7 78.5 820.9 86.8" fill="none" stroke="var(--gold)" stroke-width="1.90" stroke-linecap="round" stroke-dasharray="0.1 6" opacity="0.8"/><path d="M820.9 86.8 Q808.9 110.6 806.9 137.2" fill="none" stroke="var(--gold)" stroke-width="1.90" stroke-dasharray="" opacity="0.95"/><path d="M806.9 137.2 Q815.0 162.7 832.3 183.1" fill="none" stroke="var(--gold)" stroke-width="1.90" stroke-dasharray="" opacity="0.95"/><path d="M832.3 183.1 Q809.1 182.4 787.3 190.6" fill="none" stroke="var(--gold)" stroke-width="1.90" stroke-dasharray="" opacity="0.95"/><path d="M787.3 190.6 Q759.3 207.0 739.9 232.8" fill="none" stroke="var(--gold)" stroke-width="1.90" stroke-dasharray="" opacity="0.95"/><path d="M739.9 232.8 Q723.9 252.5 716.8 276.7" fill="none" stroke="var(--gold)" stroke-width="1.90" stroke-dasharray="" opacity="0.95"/><path d="M716.8 276.7 Q698.4 275.4 681.0 281.2" fill="none" stroke="var(--gold)" stroke-width="1.90" stroke-dasharray="" opacity="0.95"/><path d="M681.0 281.2 Q661.4 284.1 644.5 294.3" fill="none" stroke="var(--gold)" stroke-width="1.90" stroke-dasharray="" opacity="0.95"/><path d="M644.5 294.3 Q639.9 303.8 639.4 314.3" fill="none" stroke="var(--gold)" stroke-width="1.90" stroke-dasharray="" opacity="0.95"/><path d="M639.4 314.3 Q647.2 316.5 655.3 315.6" fill="none" stroke="var(--gold)" stroke-width="1.90" stroke-dasharray="" opacity="0.95"/><path d="M655.3 315.6 Q647.5 313.4 639.4 314.3" fill="none" stroke="var(--gold)" stroke-width="1.90" stroke-dasharray="" opacity="0.95"/><path d="M639.4 314.3 Q611.2 328.1 590.5 351.6" fill="none" stroke="var(--gold)" stroke-width="1.90" stroke-dasharray="" opacity="0.95"/><path d="M590.5 351.6 Q594.1 355.6 598.9 357.9" fill="none" stroke="var(--gold)" stroke-width="1.90" stroke-dasharray="" opacity="0.95"/><path d="M598.9 357.9 Q614.4 363.6 630.9 362.8" fill="none" stroke="var(--gold)" stroke-width="1.90" stroke-dasharray="" opacity="0.95"/><path d="M630.9 362.8 Q631.2 387.2 640.8 409.6" fill="none" stroke="var(--gold)" stroke-width="1.90" stroke-dasharray="" opacity="0.95"/><path d="M640.8 409.6 Q636.5 405.2 630.5 403.6" fill="none" stroke="var(--gold)" stroke-width="1.40" stroke-dasharray="9 6" opacity="0.85"/><path d="M630.5 403.6 Q634.9 408.0 640.8 409.6" fill="none" stroke="var(--gold)" stroke-width="1.40" stroke-dasharray="9 6" opacity="0.85"/><path d="M640.8 409.6 Q655.2 415.4 670.5 412.9" fill="none" stroke="var(--gold)" stroke-width="1.40" stroke-dasharray="9 6" opacity="0.85"/><path d="M670.5 412.9 Q678.1 409.0 683.6 402.5" fill="none" stroke="var(--gold)" stroke-width="1.90" stroke-dasharray="" opacity="0.95"/><path d="M683.6 402.5 Q686.9 410.6 693.0 416.7" fill="none" stroke="var(--gold)" stroke-width="1.30" stroke-dasharray="1 4 7 4" opacity="0.85"/><path d="M693.0 416.7 Q693.3 420.8 695.1 424.5" fill="none" stroke="var(--gold)" stroke-width="1.30" stroke-dasharray="1 4 7 4" opacity="0.85"/><path d="M695.1 424.5 Q698.1 421.1 699.0 416.7" fill="none" stroke="var(--gold)" stroke-width="1.40" stroke-dasharray="9 6" opacity="0.85"/><path d="M699.0 416.7 Q698.5 424.4 702.0 431.2" fill="none" stroke="var(--gold)" stroke-width="1.40" stroke-dasharray="9 6" opacity="0.85"/><path d="M702.0 431.2 Q699.8 432.8 698.4 435.1" fill="none" stroke="var(--gold)" stroke-width="1.90" stroke-dasharray="" opacity="0.95"/><path d="M698.4 435.1 Q700.6 433.5 702.0 431.2" fill="none" stroke="var(--gold)" stroke-width="1.90" stroke-dasharray="" opacity="0.95"/><path d="M702.0 431.2 Q703.6 435.7 707.4 438.7" fill="none" stroke="var(--gold)" stroke-width="1.40" stroke-dasharray="9 6" opacity="0.85"/><path d="M707.4 438.7 Q711.1 436.2 713.0 432.2" fill="none" stroke="var(--gold)" stroke-width="1.40" stroke-dasharray="9 6" opacity="0.85"/><path d="M713.0 432.2 Q709.5 434.9 707.4 438.7" fill="none" stroke="var(--gold)" stroke-width="1.30" stroke-dasharray="1 4 7 4" opacity="0.85"/><path d="M707.4 438.7 Q708.6 447.2 714.0 453.7" fill="none" stroke="var(--gold)" stroke-width="1.40" stroke-dasharray="9 6" opacity="0.85"/><path d="M714.0 453.7 Q545.5 316.5 329.8 289.6" fill="none" stroke="var(--gold)" stroke-width="1.30" stroke-dasharray="2 7" opacity="0.62"/><path d="M329.8 289.6 Q331.1 296.2 335.7 301.2" fill="none" stroke="var(--gold)" stroke-width="1.40" stroke-dasharray="9 6" opacity="0.85"/><path d="M335.7 301.2 Q338.3 244.8 281.9 247.5" fill="none" stroke="var(--gold)" stroke-width="1.30" stroke-dasharray="2 7" opacity="0.62"/><circle cx="335.7" cy="301.2" r="2.6" fill="var(--gold)"><title>Paris · 14 nights</title></circle><circle cx="281.9" cy="247.5" r="2.6" fill="var(--gold)"><title>London · 7 nights</title></circle><circle cx="257.5" cy="242.5" r="1.4" fill="var(--gold)"><title>Oxford · 0 nights</title></circle><circle cx="219.9" cy="209.0" r="2.6" fill="var(--gold)"><title>Liverpool · 3 nights</title></circle><circle cx="236.1" cy="207.5" r="2.6" fill="var(--gold)"><title>Manchester · 2 nights</title></circle><circle cx="242.7" cy="210.4" r="1.4" fill="var(--gold)"><title>Chinley · 0 nights</title></circle><circle cx="236.1" cy="207.5" r="2.6" fill="var(--gold)"><title>Manchester · 2 nights</title></circle><circle cx="202.4" cy="215.4" r="2.6" fill="var(--gold)"><title>Betws-y-Coed · 1 nights</title></circle><circle cx="219.3" cy="241.1" r="2.6" fill="var(--gold)"><title>Abergavenny · 2 nights</title></circle><circle cx="184.3" cy="211.0" r="1.4" fill="var(--gold)"><title>Holyhead · 0 nights</title></circle><circle cx="149.1" cy="210.2" r="1.4" fill="var(--gold)"><title>Dublin · 0 nights</title></circle><circle cx="88.5" cy="211.8" r="1.4" fill="var(--gold)"><title>Galway · 0 nights</title></circle><circle cx="67.7" cy="207.4" r="2.6" fill="var(--gold)"><title>Clifden · 2 nights</title></circle><circle cx="88.5" cy="211.8" r="1.4" fill="var(--gold)"><title>Galway · 0 nights</title></circle><circle cx="149.1" cy="210.2" r="1.4" fill="var(--gold)"><title>Dublin · 0 nights</title></circle><circle cx="153.3" cy="209.4" r="1.4" fill="var(--gold)"><title>Howth · 0 nights</title></circle><circle cx="149.1" cy="210.2" r="2.6" fill="var(--gold)"><title>Dublin · 2 nights</title></circle><circle cx="156.2" cy="184.9" r="2.6" fill="var(--gold)"><title>Belfast · 1 nights</title></circle><circle cx="335.7" cy="301.2" r="2.6" fill="var(--gold)"><title>Paris · 6 nights</title></circle><circle cx="350.9" cy="265.3" r="1.4" fill="var(--gold)"><title>Lille · 0 nights</title></circle><circle cx="358.1" cy="265.7" r="1.4" fill="var(--gold)"><title>Tournai · 0 nights</title></circle><circle cx="379.0" cy="260.8" r="1.4" fill="var(--gold)"><title>Brussels · 0 nights</title></circle><circle cx="435.5" cy="259.0" r="1.4" fill="var(--gold)"><title>Cologne · 0 nights</title></circle><circle cx="501.2" cy="206.1" r="1.4" fill="var(--gold)"><title>Hamburg · 0 nights</title></circle><circle cx="557.0" cy="163.0" r="2.6" fill="var(--gold)"><title>Copenhagen · 3 nights</title></circle><circle cx="676.1" cy="89.0" r="2.6" fill="var(--gold)"><title>Stockholm · 3 nights</title></circle><circle cx="767.1" cy="66.3" r="1.4" fill="var(--gold)"><title>Turku · 0 nights</title></circle><circle cx="824.9" cy="72.0" r="2.6" fill="var(--gold)"><title>Helsinki · 3 nights</title></circle><circle cx="820.9" cy="86.8" r="2.6" fill="var(--gold)"><title>Tallinn · 1 nights</title></circle><circle cx="806.9" cy="137.2" r="2.6" fill="var(--gold)"><title>Riga · 2 nights</title></circle><circle cx="832.3" cy="183.1" r="2.6" fill="var(--gold)"><title>Vilnius · 1 nights</title></circle><circle cx="787.3" cy="190.6" r="1.4" fill="var(--gold)"><title>Mockava · 0 nights</title></circle><circle cx="739.9" cy="232.8" r="1.4" fill="var(--gold)"><title>Warsaw · 0 nights</title></circle><circle cx="716.8" cy="276.7" r="1.4" fill="var(--gold)"><title>Kraków · 0 nights</title></circle><circle cx="681.0" cy="281.2" r="1.4" fill="var(--gold)"><title>Ostrava · 0 nights</title></circle><circle cx="644.5" cy="294.3" r="1.4" fill="var(--gold)"><title>Brno · 0 nights</title></circle><circle cx="639.4" cy="314.3" r="1.4" fill="var(--gold)"><title>Vienna · 0 nights</title></circle><circle cx="655.3" cy="315.6" r="2.6" fill="var(--gold)"><title>Bratislava · 2 nights</title></circle><circle cx="639.4" cy="314.3" r="2.6" fill="var(--gold)"><title>Vienna · 1 nights</title></circle><circle cx="590.5" cy="351.6" r="2.6" fill="var(--gold)"><title>Bled · 1 nights</title></circle><circle cx="598.9" cy="357.9" r="2.6" fill="var(--gold)"><title>Ljubljana · 1 nights</title></circle><circle cx="630.9" cy="362.8" r="1.4" fill="var(--gold)"><title>Zagreb · 0 nights</title></circle><circle cx="640.8" cy="409.6" r="2.6" fill="var(--gold)"><title>Split · 4 nights</title></circle><circle cx="630.5" cy="403.6" r="1.4" fill="var(--gold)"><title>Krka National Park · 0 nights</title></circle><circle cx="640.8" cy="409.6" r="1.4" fill="var(--gold)"><title>Split · 0 nights</title></circle><circle cx="670.5" cy="412.9" r="2.6" fill="var(--gold)"><title>Mostar · 1 nights</title></circle><circle cx="683.6" cy="402.5" r="2.6" fill="var(--gold)"><title>Sarajevo · 1 nights</title></circle><circle cx="693.0" cy="416.7" r="1.4" fill="var(--gold)"><title>Plužine · 0 nights</title></circle><circle cx="695.1" cy="424.5" r="1.4" fill="var(--gold)"><title>Niksic · 0 nights</title></circle><circle cx="699.0" cy="416.7" r="2.6" fill="var(--gold)"><title>Žabljak · 3 nights</title></circle><circle cx="702.0" cy="431.2" r="2.6" fill="var(--gold)"><title>Podgorica · 2 nights</title></circle><circle cx="698.4" cy="435.1" r="1.4" fill="var(--gold)"><title>Virpazar · 0 nights</title></circle><circle cx="702.0" cy="431.2" r="2.6" fill="var(--gold)"><title>Podgorica · 1 nights</title></circle><circle cx="707.4" cy="438.7" r="2.6" fill="var(--gold)"><title>Shkodër · 2 nights</title></circle><circle cx="713.0" cy="432.2" r="1.4" fill="var(--gold)"><title>Theth · 0 nights</title></circle><circle cx="707.4" cy="438.7" r="1.4" fill="var(--gold)"><title>Shkodër · 0 nights</title></circle><circle cx="714.0" cy="453.7" r="2.6" fill="var(--gold)"><title>Tirana · 1 nights</title></circle><circle cx="329.8" cy="289.6" r="1.4" fill="var(--gold)"><title>Beauvais · 0 nights</title></circle><circle cx="335.7" cy="301.2" r="2.6" fill="var(--gold)"><title>Paris · 16 nights</title></circle><circle cx="281.9" cy="247.5" r="1.4" fill="var(--gold)"><title>London · 0 nights</title></circle><text x="330.7" y="304.2" text-anchor="end" class="tr-city">Paris</text><text x="276.9" y="250.5" text-anchor="end" class="tr-city">London</text><text x="214.9" y="212.0" text-anchor="end" class="tr-city">Liverpool</text><text x="231.1" y="210.5" text-anchor="end" class="tr-city">Manchester</text><text x="197.4" y="218.4" text-anchor="end" class="tr-city">Betws-y-Coed</text><text x="214.3" y="244.1" text-anchor="end" class="tr-city">Abergavenny</text><text x="62.7" y="210.4" text-anchor="end" class="tr-city">Clifden</text><text x="144.1" y="213.2" text-anchor="end" class="tr-city">Dublin</text><text x="151.2" y="187.9" text-anchor="end" class="tr-city">Belfast</text><text x="562.0" y="166.0" text-anchor="start" class="tr-city">Copenhagen</text><text x="681.1" y="92.0" text-anchor="start" class="tr-city">Stockholm</text><text x="829.9" y="75.0" text-anchor="start" class="tr-city">Helsinki</text><text x="825.9" y="89.8" text-anchor="start" class="tr-city">Tallinn</text><text x="811.9" y="140.2" text-anchor="start" class="tr-city">Riga</text><text x="837.3" y="186.1" text-anchor="start" class="tr-city">Vilnius</text><text x="660.3" y="318.6" text-anchor="start" class="tr-city">Bratislava</text><text x="644.4" y="317.3" text-anchor="start" class="tr-city">Vienna</text><text x="595.5" y="354.6" text-anchor="start" class="tr-city">Bled</text><text x="603.9" y="360.9" text-anchor="start" class="tr-city">Ljubljana</text><text x="645.8" y="412.6" text-anchor="start" class="tr-city">Split</text><text x="675.5" y="415.9" text-anchor="start" class="tr-city">Mostar</text><text x="688.6" y="405.5" text-anchor="start" class="tr-city">Sarajevo</text><text x="704.0" y="419.7" text-anchor="start" class="tr-city">Žabljak</text><text x="707.0" y="434.2" text-anchor="start" class="tr-city">Podgorica</text><text x="712.4" y="441.7" text-anchor="start" class="tr-city">Shkodër</text><text x="719.0" y="456.7" text-anchor="start" class="tr-city">Tirana</text><line x1="640.8" y1="409.6" x2="570.8" y2="449.6" stroke="var(--dim)" stroke-width="0.8"/><text x="566.8" y="453.6" text-anchor="end" class="tr-note">Ljubljana&#8202;&#8594;&#8202;Split · 13h37m</text></svg>