<svg viewBox="0 0 900 150" width="100%" role="img" aria-label="daily strip"><style>svg{background:#f3efe6}:root{--paper:#f3efe6;--ink:#211d17;--dim:#6f6a5c;--rule:#d7d0be;--accent:#7c3b2c;--gold:#9a7636;--faint:#c9c1ac;--far:#e2dbc9;--c0:#2f5d54;--c1:#9a7636;--c2:#7c3b2c;--c3:#5b4a6f;--c4:#3a6079;--c5:#7a7d3c;--c6:#8a8172}text{font-family:"Spline Sans Mono",ui-monospace,monospace}.ax{fill:#6f6a5c;font-size:9px} .ax-note{fill:#211d17;font-size:9px}.tr-city{fill:#6f6a5c;font-size:9px} .tr-note{fill:#211d17;font-size:9.5px}</style><rect x="4.6" y="22.3" width="6.7" height="99.66" fill="var(--ink)" opacity="0.28"/><rect x="140.6" y="87.5" width="6.7" height="34.49" fill="var(--accent)" opacity="0.9"/><rect x="208.6" y="88.7" width="6.7" height="33.32" fill="var(--accent)" opacity="0.9"/><rect x="237.8" y="104.3" width="6.7" height="17.66" fill="var(--accent)" opacity="0.9"/><rect x="257.2" y="108.9" width="6.7" height="13.13" fill="var(--accent)" opacity="0.9"/><rect x="266.9" y="105.3" width="6.7" height="16.68" fill="var(--accent)" opacity="0.9"/><rect x="286.4" y="81.0" width="6.7" height="41.00" fill="var(--accent)" opacity="0.9"/><rect x="286.4" y="46.9" width="6.7" height="34.11" fill="var(--ink)" opacity="0.28"/><rect x="296.1" y="109.6" width="6.7" height="12.39" fill="var(--ink)" opacity="0.28"/><rect x="315.5" y="114.0" width="6.7" height="8.03" fill="var(--accent)" opacity="0.9"/><rect x="315.5" y="72.5" width="6.7" height="41.46" fill="var(--ink)" opacity="0.28"/><rect x="334.9" y="106.3" width="6.7" height="15.73" fill="var(--accent)" opacity="0.9"/><rect x="344.6" y="96.2" width="6.7" height="25.82" fill="var(--ink)" opacity="0.28"/><rect x="402.9" y="41.3" width="6.7" height="80.69" fill="var(--accent)" opacity="0.9"/><rect x="412.6" y="40.1" width="6.7" height="81.94" fill="var(--accent)" opacity="0.9"/><rect x="441.8" y="71.0" width="6.7" height="50.99" fill="var(--accent)" opacity="0.9"/><rect x="470.9" y="105.3" width="6.7" height="16.66" fill="var(--accent)" opacity="0.9"/><rect x="470.9" y="33.0" width="6.7" height="72.37" fill="var(--ink)" opacity="0.28"/><rect x="500.1" y="94.2" width="6.7" height="27.79" fill="var(--ink)" opacity="0.28"/><rect x="509.8" y="76.1" width="6.7" height="45.92" fill="var(--accent)" opacity="0.9"/><rect x="529.2" y="95.0" width="6.7" height="26.98" fill="var(--accent)" opacity="0.9"/><rect x="538.9" y="52.2" width="6.7" height="69.83" fill="var(--accent)" opacity="0.9"/><rect x="548.6" y="53.6" width="6.7" height="68.36" fill="var(--accent)" opacity="0.9"/><rect x="568.1" y="114.2" width="6.7" height="7.83" fill="var(--accent)" opacity="0.9"/><rect x="577.8" y="79.1" width="6.7" height="42.94" fill="var(--accent)" opacity="0.9"/><rect x="587.5" y="115.0" width="6.7" height="7.02" fill="var(--accent)" opacity="0.9"/><rect x="597.2" y="27.7" width="6.7" height="94.34" fill="var(--accent)" opacity="0.9"/><rect x="626.4" y="112.2" width="6.7" height="9.85" fill="var(--ink)" opacity="0.28"/><rect x="636.1" y="93.6" width="6.7" height="28.44" fill="var(--ink)" opacity="0.28"/><rect x="645.8" y="112.3" width="6.7" height="9.71" fill="var(--accent)" opacity="0.9"/><rect x="655.5" y="96.3" width="6.7" height="25.75" fill="var(--ink)" opacity="0.28"/><rect x="684.6" y="107.9" width="6.7" height="14.09" fill="var(--ink)" opacity="0.28"/><rect x="694.4" y="111.8" width="6.7" height="10.24" fill="var(--accent)" opacity="0.9"/><rect x="704.1" y="112.7" width="6.7" height="9.27" fill="var(--ink)" opacity="0.28"/><rect x="713.8" y="107.5" width="6.7" height="14.46" fill="var(--ink)" opacity="0.28"/><rect x="723.5" y="107.1" width="6.7" height="14.93" fill="var(--ink)" opacity="0.28"/><rect x="733.2" y="74.5" width="6.7" height="47.48" fill="var(--ink)" opacity="0.28"/><rect x="888.6" y="6.0" width="6.7" height="116.00" fill="var(--ink)" opacity="0.28"/><line x1="8" y1="122.0" x2="892" y2="122.0" stroke="var(--rule)"/><line x1="56.6" y1="116.0" x2="56.6" y2="122.0" stroke="var(--rule)"/><text x="59.6" y="113.0" class="ax">Mar</text><line x1="357.7" y1="116.0" x2="357.7" y2="122.0" stroke="var(--rule)"/><text x="360.7" y="113.0" class="ax">Apr</text><line x1="649.1" y1="116.0" x2="649.1" y2="122.0" stroke="var(--rule)"/><text x="652.1" y="113.0" class="ax">May</text><line x1="600.6" y1="6" x2="600.6" y2="122.0" stroke="var(--ink)" stroke-width="0.5" stroke-dasharray="1 3"/><text x="603.6" y="14" class="ax-note">Ljubljana→Split</text><line x1="416.0" y1="6" x2="416.0" y2="122.0" stroke="var(--ink)" stroke-width="0.5" stroke-dasharray="1 3"/><text x="419.0" y="14" class="ax-note">Cologne→Copenhagen</text><line x1="406.3" y1="6" x2="406.3" y2="122.0" stroke="var(--ink)" stroke-width="0.5" stroke-dasharray="1 3"/><text x="409.3" y="14" class="ax-note">Paris→Cologne</text><text x="8" y="144" class="ax">hours in transit / day</text></svg>