<svg viewBox="0 0 640 184" width="100%" role="img" aria-label="Estimated hours by transport mode"><style>svg{background:#1e1e18;border-radius:10px}:root{--bg:#14140f;--card:#1e1e18;--ink:#ece7dc;--muted:#9a9488;--line:#33322b;--accent:#5faa80;--track:#26261f;--m-train:#5faa80;--m-bus:#e0a061;--m-ferry:#5fb6cc;--m-flight:#8a9ae0;--m-car:#d08a78;--m-bike:#8fc09c;--m-walk:#b6afa0;--cat-lodging:#78a6d8;--cat-food:#e0a061;--cat-transport:#5faa80;--cat-shopping:#c08fc6;--cat-activities:#e08a8a;--cat-gifts:#5fb6cc;--cat-misc:#b6afa0} text{font-family:-apple-system,Segoe UI,Roboto,sans-serif}.ct{fill:#9a9488;font-size:12px;font-weight:600}.cl{fill:#ece7dc;font-size:12px} .cs{fill:#9a9488;font-size:10.5px}.cv{fill:#9a9488;font-size:11.5px}</style><text x="0" y="15" class="ct">Estimated hours by transport mode</text><text x="130" y="45.0" class="cl" text-anchor="end">Train</text><rect x="140" y="30" width="408" height="18" rx="3" fill="var(--track)"/><rect x="140" y="30" width="408.0" height="18" rx="3" fill="var(--m-train)"/><text x="556.0" y="45.0" class="cv">101.9 h</text><text x="130" y="75.0" class="cl" text-anchor="end">Bus</text><rect x="140" y="60" width="408" height="18" rx="3" fill="var(--track)"/><rect x="140" y="60" width="82.4" height="18" rx="3" fill="var(--m-bus)"/><text x="230.4" y="75.0" class="cv">20.6 h</text><text x="130" y="105.0" class="cl" text-anchor="end">Ferry</text><rect x="140" y="90" width="408" height="18" rx="3" fill="var(--track)"/><rect x="140" y="90" width="69.0" height="18" rx="3" fill="var(--m-ferry)"/><text x="217.0" y="105.0" class="cv">17.2 h</text><text x="130" y="135.0" class="cl" text-anchor="end">Flight</text><rect x="140" y="120" width="408" height="18" rx="3" fill="var(--track)"/><rect x="140" y="120" width="142.3" height="18" rx="3" fill="var(--m-flight)"/><text x="290.3" y="135.0" class="cv">35.5 h</text><text x="130" y="165.0" class="cl" text-anchor="end">Car</text><rect x="140" y="150" width="408" height="18" rx="3" fill="var(--track)"/><rect x="140" y="150" width="11.6" height="18" rx="3" fill="var(--m-car)"/><text x="159.6" y="165.0" class="cv">2.9 h</text></svg>